<svg xmlns="http://www.w3.org/2000/svg" viewBox="0 0 362.04 389.03"><defs><style>.cls-1{fill:#7dddd2;}.cls-2{fill:#b9b9b9;}.cls-3{fill:#e9e9e9;}.cls-4{fill:#316779;}.cls-5{fill:#eb7960;}</style></defs><g id="Layer_2" data-name="Layer 2"><g id="Layer_1-2" data-name="Layer 1"><path class="cls-1" d="M362,181.5A181.5,181.5,0,0,1,180.54,363c-240.75-9.56-240.69-353.48,0-363A181.5,181.5,0,0,1,362,181.5Z"/><path class="cls-2" d="M104.69,286.9c-6.11-.43-9.46-.9-9.46-.9s3.47,22.39,18.92,29.37c0,0,14.46,54.32,44.86,71.77,0,0,23.92,11,24.42-19.94A111.47,111.47,0,0,0,175,320.39C128.7,328.71,108.42,294.12,104.69,286.9Z"/><path d="M250.77,119.34c13.33.69,25,6.07,34.26,12.28,2.44-34.95-23.36-41-23.36-41-13.45-5.48-13.45,5-13.45,5C253,103.47,251.92,113.71,250.77,119.34Z"/><path class="cls-3" d="M306.92,280c13.41,33.31,3.38,41.89-3.13,44.07a12.57,12.57,0,0,1-4.36.78C280.51,326.34,263,300.93,263,300.93v.25c.81,21.2-.35,45.28-6,61.9-12.38,37.06-38.87,23.54-38.87,23.54-21.94-11.43-30.38-69.25-30.38-69.25-61.81,18.94-82.38-28.9-82.38-28.9-26.91,2.24-34-21.3-34-21.3-37.76,3.69-53.83-28.05-53.83-28.05-23.92-37.37,0-54.58,0-54.58,12.23-4.07,19.26-27.21,19.06-27.67,5.2-37.64,37-54.52,59.44-56.06a38.18,38.18,0,0,1,11-1.9,140.29,140.29,0,0,1,16.38.17c25.43-9,42.34-43.34,42.34-43.34,3.49-17.94,10.48-20.46,10.48-20.46,16.43-9,26.91,8,26.91,8,20.45,37.89,3,92.69,3,92.69.7-.56,1.39-1.12,2.09-1.62.28-.22.56-.45.87-.67,54-40.88,98.23,18.25,98.23,18.25C344.28,229.64,306.92,280,306.92,280Z"/><path class="cls-2" d="M303.79,324.07a12.57,12.57,0,0,1-4.36.78C280.51,326.34,263,300.93,263,300.93v.25a288.2,288.2,0,0,1-.36,29.93c-2.49-4.86-4.45-9.33-5.09-12.49-2.35-11.18-7.46-44.71-7.46-44.71S281.46,277.32,303.79,324.07Z"/><path class="cls-4" d="M104.18,276.5c-12.88.7-17.56-7.64-18-10.47,14.46-3.56,28.1-13.16,31.91-18.93C121.64,274,104.18,276.5,104.18,276.5Z"/><path class="cls-5" d="M37.17,152.21c5.54-25.26,21-38.14,34.58-44.68C47.86,97,34.91,56.71,34.91,56.71c-4.48-8-10-2.49-10-2.49-5,3-6.48,16.45-6.48,16.45C8,126.09,34.52,150,37.17,152.21Z"/><path d="M48.86,127a1.49,1.49,0,0,1-1.43-1.08c-.08-.26-7.56-26.28-21.12-41.79a1.5,1.5,0,0,1,2.25-2c14,16,21.43,41.85,21.74,42.94A1.5,1.5,0,0,1,48.86,127Z"/><path class="cls-5" d="M207.94,134.31c17.22,68.54-20.52,99.82-20.52,99.82-5-48.33-43.86-37.86-43.86-37.86-29.91,9.45-45.84-10-45.84-10-19.68-42,3.91-80,9-87.37a137.65,137.65,0,0,1,16.38.17c25.42-9,42.35-43.35,42.35-43.35,3.49-17.95,10.46-20.46,10.46-20.46,16.45-9,26.91,8,26.91,8,20.46,37.88,3,92.69,3,92.69C206.56,135.39,207.25,134.82,207.94,134.31Z"/><path d="M127.11,177.57a7.23,7.23,0,0,1-7.23,7.23c-9.56-.33-9.56-14.13,0-14.46A7.23,7.23,0,0,1,127.11,177.57Z"/><path d="M128.6,149.41a1.51,1.51,0,0,1-1-.41c-9.92-9.48-19.58-2.21-20-1.89a1.5,1.5,0,0,1-1.83-2.37c.12-.09,12.13-9.12,23.88,2.09A1.51,1.51,0,0,1,128.6,149.41Z"/><path d="M51,202c0,8.84-9.62,16-21.5,16C1,217.13,1,186.87,29.54,186,41.42,186,51,193.16,51,202Z"/><path class="cls-5" d="M63.6,112.15c-20.31,17.2-22.7,53.71-22.7,53.71-3.41,11.93-13.6,15.49-19.7,16.5,10.58-7.5,15.07-25.47,15.07-25.47C40,133.77,51.61,120.17,63.6,112.15Z"/><path d="M71,268.66a1.49,1.49,0,0,1-.13-3c.5-.05,50.48-4.94,55.72-38.75a1.49,1.49,0,0,1,1.71-1.25,1.51,1.51,0,0,1,1.25,1.71c-5.6,36.12-57.89,41.22-58.41,41.27Z"/><path d="M104.18,276.5a27.74,27.74,0,0,1-4-.12,108.8,108.8,0,0,1,1.16-16.18c12.06-6.22,16.75-13.1,16.75-13.1C121.64,274,104.18,276.5,104.18,276.5Z"/><path d="M137.08,233.64c-14.46-3.52-17.55-15.39-17.42-15.67a1.5,1.5,0,1,1,2.94-.56c.09.44,2.1,9.64,14.89,13.29A1.5,1.5,0,0,1,137.08,233.64Z"/><path d="M106.89,290.05a17.42,17.42,0,0,1-2.07-.11,1.5,1.5,0,0,1,.45-3c.75.1,18.55,2.46,27.93-20.52a1.51,1.51,0,0,1,2-.82,1.49,1.49,0,0,1,.82,1.95C127.61,288.08,112.41,290.05,106.89,290.05Z"/><path class="cls-5" d="M306.53,280c-3,23.92-9,14.95-9,14.95-11-16.45-38.37-27.42-38.37-27.42l2.48,31.39,1,2.28c1,29-1.59,48.68-6,61.9-61.75,46.49-58.31-39.75-58.31-39.75,5-54.33-8.46-44.85-8.46-44.85-11,3-16.45-4.48-16.45-4.48-7-15,11-28.92,11-28.92,48.36-38.22,27.78-101.94,24.37-111.45,54-40.87,98.23,18.24,98.23,18.24C343.9,229.64,306.53,280,306.53,280Z"/><path d="M259.18,271a1.49,1.49,0,0,1-1.49-1.43c-1.46-36.93-17.42-55.71-17.58-55.9a1.5,1.5,0,0,1,2.26-2c.68.79,16.81,19.77,18.3,57.74a1.5,1.5,0,0,1-1.43,1.55Z"/><path d="M257.19,251.08a1.5,1.5,0,0,1-1.47-1.77c5.83-31.62-1.87-56.84-1.95-57.09a1.49,1.49,0,1,1,2.85-.89c.08.25,8,26.14,2,58.52A1.5,1.5,0,0,1,257.19,251.08Z"/><path d="M242.24,192.77a1.49,1.49,0,0,1-1.44-1.09c-.14-.48-13.58-47.9-32.62-56.67a1.49,1.49,0,0,1,1.25-2.71c20.29,9.34,33.69,56.57,34.25,58.57A1.51,1.51,0,0,1,242.24,192.77Z"/><path d="M197.38,125c-1.89-.12-11.28-14.42-34.88-22.51l-1.67-.58c.9-1.73,11.24-20,15.15-37.52.51-1.32,4.42-10.7,10.23-10.83,3.27-.06,6.06,2.63,8.54,8A1.49,1.49,0,0,1,192,62.82c-5.18-11.92-10.15-4.27-13.21,2.42-2.9,13.81-11.05,30-13.7,35,22,8.11,33,21.73,33.43,22.32A1.51,1.51,0,0,1,197.38,125Z"/><path d="M300.05,301.41a1.5,1.5,0,0,1-1.32-.78c-.15-.28-15-27.43-40.43-34.15a1.49,1.49,0,0,1,.76-2.89c26.74,7.06,41.68,34.46,42.31,35.62A1.5,1.5,0,0,1,300.05,301.41Z"/></g></g></svg>