<svg xmlns="http://www.w3.org/2000/svg" viewBox="0 0 467.5 413.83"><defs><style>.cls-1{fill:#7dddd2;}.cls-2{fill:#e9e9e9;}.cls-3{fill:#eb7960;}.cls-4{fill:#316779;}</style></defs><g id="Layer_2" data-name="Layer 2"><g id="Layer_1-2" data-name="Layer 1"><path class="cls-1" d="M393.27,63.65,379.89,37.76c-.49-1-.91-1.94-1.31-2.94a55.33,55.33,0,0,0-96.13-12c-.48.66-1,1.3-1.49,1.91L260.89,48.18a31.9,31.9,0,0,1-24.25,11.17H171.12a31.9,31.9,0,0,0-31.89,31.9h0a31.9,31.9,0,0,1-13.43,26L39.61,178.49A94.15,94.15,0,0,0,0,255.23H0a94.14,94.14,0,0,0,56.09,86.11L84.5,353.89a94.15,94.15,0,0,0,81.75-2.72l39.21-20.55a123,123,0,0,1,57.12-14.07h0a123,123,0,0,0,106.94-62.2l.88-1.54a31.9,31.9,0,0,1,27.72-16.13h0A69.38,69.38,0,0,0,467.5,167.3V147.56A67.35,67.35,0,0,0,426,85.35l-16.57-6.87A32,32,0,0,1,393.27,63.65Z"/><path class="cls-2" d="M386.37,109.9c-.1,2.71-.3,5.32-.64,7.79-5.48,41.11-41.22,50.15-41.22,50.15,10.56,33-19.49,35.53-19.49,35.53-1.25,30-27.08,49.95-27.08,49.95a49.88,49.88,0,0,0,21.12,8.23,20.46,20.46,0,0,0,2.57.23c15.67-1.28,19.9,12.25,19.9,12.25,4.67,17.33-12.69,27.48-12.69,27.48-39.76,18.61-79.09-3.38-79.09-3.38-38.51,66.87-106.59,60.1-106.59,60.1-18.62,30-46.57,18.17-46.57,18.17-1.69,12.32-4.26,20.58-7.07,26.13-6.33,12.52-13.64,11.1-13.64,11.1-15.64,2.13-23.28-13.1-23.28-13.1-10.43-26,.44-46.06,6-53.91A36.31,36.31,0,0,1,61.5,343C45.83,252,111,245.67,111,245.67c47.07-14.78,73.33-51.37,78.2-58.71.61-.85.88-1.32.88-1.32-5.51-14-5.51-33-5.51-33-45.08-35-43.46-62.37-39.16-74.79a13,13,0,0,1,18.65-7.1c6.73,3.92,12.05,10.82,12.05,10.82,18.61,19.5,36.41,26.67,36.41,26.67C244.24,66.32,295,84.12,295,84.12A48.4,48.4,0,0,0,303.33,88,58.91,58.91,0,0,0,330,90.65a49.16,49.16,0,0,0,5.58-1.05c22.44-16.08,29.2-9.31,29.2-9.31C386.37,80.73,386.37,109.9,386.37,109.9Z"/><path class="cls-3" d="M64.64,283.44a87.39,87.39,0,0,0-5.48,28.16c-17.63,2.64-27.82-5.22-23-15.3C40.65,286.76,60.45,283.91,64.64,283.44Z"/><path d="M143.16,358.23c-6.52,10.51-14.18,15.88-21.39,18.43-.34,2.76-1.32,16,10.79,17.79,0,0,27.61,1.8,34.26-37.62C152.77,359.18,143.16,358.23,143.16,358.23Z"/><path class="cls-3" d="M306.84,292.07c-20,12.15-47.95-4.77-47.95-4.77-17.76-16.65-24.23-9.61-24.23-9.61C204.75,332.14,147.79,333,147.79,333c1.42,9.58-4.63,25.25-4.63,25.25-18.62,30-46.57,18.17-46.57,18.17-1.69,12.32-4.26,20.58-7.07,26.13-6.33,12.52-13.64,11.1-13.64,11.1-15.64,2.13-23.28-13.1-23.28-13.1-10.43-26,.44-46.06,6-53.91A36.31,36.31,0,0,1,61.5,343C45.83,252,111,245.67,111,245.67c47.07-14.78,73.33-51.37,78.2-58.71,10,48.09,49.68,44.77,49.68,44.77,18.31-7.61,36.65,11.57,36.65,11.57,9.58,8.74,22.4,10,22.4,10a49.88,49.88,0,0,0,21.12,8.23C324.41,281.82,306.84,292.07,306.84,292.07Z"/><path d="M344.35,220.45c-8.71,1.25-17.41-2.39-21.4-4.4-6.35,22.82-25,37.27-25,37.27a49.88,49.88,0,0,0,21.12,8.23,20.46,20.46,0,0,0,2.57.23c6.85-.56,11.51,1.71,14.59,4.44l.8-.08c47.38-5.08,37.23-33.28,37.23-33.28C368,215.37,344.35,220.45,344.35,220.45Z"/><path class="cls-4" d="M308.25,181.25s9.21,10.26,19.7,9.85a9.93,9.93,0,0,0,8.51-5.27c1.55-3,2.31-7.39-1.41-12.76C335.05,173.07,318.41,181.25,308.25,181.25Z"/><path class="cls-3" d="M287.39,118.36c2.26,11.27-8.19,19.46-8.19,19.46l-20.31,18c-14.92,9.88-10.69,32.45-10.69,32.45,2,20.31-14.11,19.46-14.11,19.46-33.84,3.66-44-22.13-44-22.13-5.51-14-5.51-33-5.51-33-45.08-35-43.46-62.37-39.16-74.79a13,13,0,0,1,18.65-7.1c6.73,3.92,12.05,10.82,12.05,10.82,18.61,19.5,36.41,26.67,36.41,26.67C244.24,66.32,295,84.12,295,84.12A48.4,48.4,0,0,0,303.33,88C281.8,91.36,287.39,118.36,287.39,118.36Z"/><path d="M190.38,141.94a3,3,0,0,1-.42,0,2.43,2.43,0,0,1-2-2.81c1.1-6.35,4.68-14.28,6.5-18-13-7.73-25.61-27-26.17-27.89-5.15-10.89-8.59-11.86-9.13-12l-.46.07a.66.66,0,0,0-.6.34c-1.33,2-.18,8.52,1,12.31a2.43,2.43,0,1,1-4.63,1.45c-.61-1.94-3.5-11.85-.41-16.46A5.42,5.42,0,0,1,158,76.5c2.06-.59,7.63-.38,14.56,14.32h0s13.76,21,26.22,27.05L201,119l-1.16,2.21c-.06.11-5.76,11-7.09,18.75A2.43,2.43,0,0,1,190.38,141.94Z"/><path d="M264.79,80.51c-4.33-3-11.88-9.57-21.12-23.06,0,0-13.25-25.95-25.38-19.74,0,0-18.9,16.17,6.76,57.55C238.05,84.85,252.44,81.22,264.79,80.51Z"/><path d="M277,127.67a5.08,5.08,0,1,1-5.07-5.08A5.08,5.08,0,0,1,277,127.67Z"/><path d="M253.83,111.21a2.45,2.45,0,0,1-2.23-3.4c1.81-4.2,8-11.74,18.38-10.18a2.43,2.43,0,0,1-.72,4.81c-9.31-1.41-13.16,7.21-13.2,7.3A2.43,2.43,0,0,1,253.83,111.21Z"/><path d="M386.37,109.9c-.1,2.71-.3,5.32-.64,7.79a45,45,0,0,1-55.7-27,49.16,49.16,0,0,0,5.58-1.05c22.44-16.08,29.2-9.31,29.2-9.31C386.37,80.73,386.37,109.9,386.37,109.9Z"/><path d="M310,207.49a2.27,2.27,0,1,1,0-4.54,82.79,82.79,0,0,0,17.49-2.19,2.27,2.27,0,1,1,1.11,4.41A85.73,85.73,0,0,1,310,207.49Z"/><path d="M298.16,184.33c-16.25,0-25.09-6-25.71-6.45a2.43,2.43,0,0,1,2.79-4h0c.25.17,24.61,16.44,68.07-8.17a2.43,2.43,0,0,1,2.4,4.22C326.07,181.08,310.11,184.33,298.16,184.33Z"/><path class="cls-2" d="M89.52,402.53c-6.33,12.52-13.64,11.1-13.64,11.1-15.64,2.13-23.28-13.1-23.28-13.1-10.43-26,.44-46.06,6-53.91-6.12,54.59,30.22,55.16,30.22,55.16Z"/><path d="M332.53,189.82a54.91,54.91,0,0,0-9.71-11.71c-4.85,1.68-10.28,3.14-14.57,3.14,0,0,9.21,10.26,19.7,9.85A10.31,10.31,0,0,0,332.53,189.82Z"/></g></g></svg>