<svg xmlns="http://www.w3.org/2000/svg" viewBox="0 0 407.64 368.5"><defs><style>.cls-1{fill:#7dddd2;}.cls-2{fill:#eb7960;}.cls-3{fill:#e9e9e9;}.cls-4{fill:#b9b9b9;}.cls-5{fill:#316779;}</style></defs><g id="Layer_2" data-name="Layer 2"><g id="Layer_1-2" data-name="Layer 1"><path class="cls-1" d="M21.17,136A52.9,52.9,0,0,0,52.9,231.25c1,0,1.92,0,2.87-.08a74.85,74.85,0,0,0-7.83,36.32c1.42,38.51,32.43,70.13,70.91,72.24a75,75,0,0,0,61.24-26.1A106.09,106.09,0,0,1,294,307.25a35.28,35.28,0,0,0,41.17-4.79l29.29-26.95a91.08,91.08,0,0,0,28.46-80.16,18.4,18.4,0,0,0-5-10.12l-7.11-7.32A18.32,18.32,0,0,1,391.64,147a18.34,18.34,0,0,0,16-18.18V106.69a86.12,86.12,0,0,0-61.56-82.54h0a85.81,85.81,0,0,0-62,5.07L276.37,33a85.84,85.84,0,0,1-82.66-4.18L171.79,15.23a102,102,0,0,0-79.16-12l-3.73,1A102,102,0,0,0,20.5,63.3l-3.89,9.21a23.74,23.74,0,0,0,6.05,26.92A23.69,23.69,0,0,1,21.17,136Zm329.4,56.77A19.59,19.59,0,1,1,331,212.38,19.59,19.59,0,0,1,350.57,192.8Z"/><path class="cls-2" d="M351.88,223.73s21-13.76,17.38-42.73c0,0-.73-10.86,14.48-5.79,0,0,47.79,17.38-6.52,86.9-50,64-29.38-22.5-25.83-36.52C351.7,224.4,351.88,223.73,351.88,223.73Z"/><path class="cls-3" d="M201.54,310.41s47.74,31.45,96.5,18,39.36-88.75,39.36-88.75l-89.79-23.9Z"/><path class="cls-4" d="M136.11,58.6a62.87,62.87,0,0,0-15.26,6.62,61.82,61.82,0,0,0-21.8,22.2c-2.94-10-11.06-43,1.42-63.39C100.47,24,120.13,25,136.11,58.6Z"/><path class="cls-2" d="M136.11,58.6a62.87,62.87,0,0,0-15.26,6.62C114.43,36.6,100.47,24,100.47,24S120.13,25,136.11,58.6Z"/><path d="M121.27,66.65a2,2,0,0,1-1.85-1.28c-.11-.29-11-28.88-19-36.9a2,2,0,0,1,2.8-2.81c8.63,8.63,19.47,37.1,19.93,38.31a2,2,0,0,1-1.86,2.68Z"/><path class="cls-3" d="M393.27,307.48c-6.89,48-51,57-51,57H306.58c-11.37,0-13.35-7.93-13.35-7.93-4.48-16.85,5.43-30.72,5.43-30.72C279.83,323.33,260,313.42,260,313.42l-4.44,24.74a41,41,0,0,1-3.45,11.37C242,371,216.88,368.4,216.88,368.4,201,368.92,201.54,352,201.54,352V310.41c-72.34-7.93-84.23-87.21-84.23-87.21-45.11-12.84-53-53.51-53-53.51-8.4-53,25.29-58.94,25.29-58.94C95.23,88.83,105.74,75.19,117.94,67c14.27-9.63,30.84-11.89,44.64-11.5a110.48,110.48,0,0,1,29,4.72c21.29-30.64,42.81-37.78,54.66-39.16A10.64,10.64,0,0,1,258,29.37c7.73,34.13-8.33,73.45-8.33,73.45a84.7,84.7,0,0,1,14.47,42.93A66.15,66.15,0,0,1,264,154c0,.12,0,.2,0,.32h.08c20.81,4,51,11.38,51,11.38C432.44,200.93,393.27,307.48,393.27,307.48Z"/><path class="cls-4" d="M98.68,196.24a23.29,23.29,0,0,1-15.85-6.64,2,2,0,0,1,2.92-2.68c.4.43,10,10.54,24,1.89a2,2,0,0,1,2.09,3.37A24.85,24.85,0,0,1,98.68,196.24Z"/><path class="cls-2" d="M264,154c0,.12,0,.2,0,.32-3,23.79-25.29,42.14-25.29,42.14,0-29.26-50.5-42.14-50.5-42.14-35.67-7.41-46.61-33.18-46.61-33.18-14-38,17.52-63.06,21-65.68a110.48,110.48,0,0,1,29,4.72c21.29-30.64,42.81-37.78,54.66-39.16A10.64,10.64,0,0,1,258,29.37c7.73,34.13-8.33,73.45-8.33,73.45A83.44,83.44,0,0,1,264,154Z"/><path class="cls-5" d="M105.28,178.29c-5.43,7.14-10.78,6.54-14.94,3.81-4.92-3.21-8.21-9.4-8.21-9.4l11.06-8.4a40.24,40.24,0,0,0,3.17,6C98.46,173.62,101.56,177.3,105.28,178.29Z"/><path d="M105.28,178.29c-5.43,7.14-10.78,6.54-14.94,3.81a12.72,12.72,0,0,1-.08-1.27c0-4,2.3-7.69,6.1-10.54C98.46,173.62,101.56,177.3,105.28,178.29Z"/><path class="cls-5" d="M105.44,178.33l-.16,0s.08-.12.12-.16Z"/><path d="M236.23,91.43a2,2,0,0,1-1.62-.83c-.09-.14-9.82-13.58-24.05-20.69l-1.92-1,1.12-1.85c.57-.92,14-22.74,28.81-29.16a7.37,7.37,0,0,1,10.09,4.8c1.43,5.09.53,11.88-2.66,20.16a2,2,0,1,1-3.7-1.42c3.59-9.31,3.36-14.75,2.55-17.67a3.42,3.42,0,0,0-4.71-2.23c-11.3,4.9-22.34,20.51-25.85,25.81,14,7.72,23.15,20.34,23.55,20.9a2,2,0,0,1-.46,2.77A2,2,0,0,1,236.23,91.43Z"/><path class="cls-2" d="M100.46,108.77c-2.49,0-10.9,2-10.9,2C95.23,88.83,105.74,75.19,117.94,67,99.27,86.73,100.46,108.77,100.46,108.77Z"/><path d="M115.33,127.1c0,8.21-10.48,20.32-22.79,20.32S70.73,135.31,70.73,127.1s10-14.86,22.3-14.86S115.33,118.89,115.33,127.1Z"/><circle cx="164.38" cy="118.68" r="8.92"/><path d="M75,176.22a13.24,13.24,0,0,1-3.94-.59c-7.64-2.36-10.07-11-10.17-11.34a2,2,0,0,1,3.83-1c0,.07,2,6.91,7.54,8.61,4.61,1.42,10.84-1,18-7.12a2,2,0,0,1,2.57,3C86.19,173.39,80.21,176.22,75,176.22Z"/><path d="M117.39,181.39A28.63,28.63,0,0,1,90.69,164l-.14-.73V147.42a2,2,0,1,1,4,0v15.44c.79,1.72,5,9.93,14.36,13.19,9,3.13,20.21.93,33.2-6.57a2,2,0,0,1,2,3.44C134.28,178.56,125.35,181.39,117.39,181.39Z"/><path class="cls-4" d="M133.48,228.05c-10.2,0-16.59-2.86-17-3.05a2,2,0,0,1-1-2.62,2,2,0,0,1,2.62-1c.15.07,14.8,6.54,35.15-1a2,2,0,1,1,1.39,3.71A60.62,60.62,0,0,1,133.48,228.05Z"/><path d="M195.59,221.74a2,2,0,0,1-.53-3.89c.56-.16,55.86-16.09,67.33-63.42a2,2,0,1,1,3.85.94c-12,49.61-69.53,66.13-70.11,66.3A2.5,2.5,0,0,1,195.59,221.74Z"/><path class="cls-2" d="M393.27,307.48c-6.89,48-51,57-51,57H306.58c-11.37,0-13.35-7.93-13.35-7.93-4.48-16.85,5.43-30.72,5.43-30.72C279.83,323.33,260,313.42,260,313.42l-4.44,24.74a41,41,0,0,1-3.45,11.37c-.36-.63-.51-.95-.51-.95s-25.77,21.29-50.07,0V310.41s2-53,26.76-67.86c0,0,41.46-52.84,35.75-88.2,20.81,4,51,11.38,51,11.38C432.44,200.93,393.27,307.48,393.27,307.48Z"/><path class="cls-4" d="M124,246.5h-.76v105s1.48,17.84,17.34,14.87c0,0,25.76,1,31.21-26.26l8.44-34.65C148.1,293.94,131.85,266.54,124,246.5Z"/><path d="M342.26,336.69a2,2,0,0,1-1.56-.76c-17-21.63-40.09-9-41.07-8.42l-1.59.9-1-1.51c-9.63-14.18-10.71-40.55-10.75-41.67-.5-18.16,4.06-32.3,13.55-42.07,13-13.34,30.31-13.49,31-13.49,23.44-1.6,34.13,28.29,34.58,29.57a2,2,0,0,1-3.75,1.31c-.09-.29-10.24-28.35-30.7-26.92-.29,0-16.58.19-28.36,12.33-8.7,9-12.87,22.14-12.4,39.15,0,.23,1,24.53,9.15,38.12,6.2-2.8,28.06-10.54,44.44,10.25a2,2,0,0,1-1.56,3.21Z"/><path d="M260,315.4a2.06,2.06,0,0,1-.42,0,2,2,0,0,1-1.52-2.35c.08-.37,7.82-37.05,4.93-55.79a2,2,0,1,1,3.92-.6c3,19.45-4.65,55.68-5,57.22A2,2,0,0,1,260,315.4Z"/><path d="M279.33,211.83h0a2,2,0,0,1-2-2c0-.36,0-36.18-14.83-54.23a2,2,0,0,1,.28-2.79,2,2,0,0,1,2.78.28c15.71,19.16,15.74,55.23,15.73,56.75A2,2,0,0,1,279.33,211.83Z"/><path d="M321.45,365.92a2,2,0,0,1-1.9-1.42c-4.16-14,3.8-28.2,4.14-28.79a2,2,0,0,1,3.44,2c-.07.13-7.45,13.33-3.78,25.71a2,2,0,0,1-1.34,2.46A1.85,1.85,0,0,1,321.45,365.92Z"/><path d="M304.6,363.45a2,2,0,0,1-1.91-1.47c-4.7-17.22,3.1-25.79,3.44-26.15a2,2,0,0,1,2.9,2.7c-.29.32-6.59,7.48-2.52,22.41a2,2,0,0,1-1.39,2.44A2.32,2.32,0,0,1,304.6,363.45Z"/><path d="M201.54,310.41a94.21,94.21,0,0,1-14.47-2.75c-3.43,10.79-9.13,32.4-1.38,36.46a36.11,36.11,0,0,0,15.85-.42Z"/><path d="M176.62,106.51a2,2,0,0,1-1.49-.67c-8.7-9.87-20.2-3.8-20.68-3.54a2,2,0,0,1-2.69-.79,2,2,0,0,1,.78-2.68c.15-.09,14.73-7.89,25.56,4.38a2,2,0,0,1-.17,2.8A2,2,0,0,1,176.62,106.51Z"/><path class="cls-5" d="M105.44,178.33l-.16,0s.08-.12.12-.16Z"/></g></g></svg>