<svg xmlns="http://www.w3.org/2000/svg" viewBox="0 0 164.29 202.26"><defs><style>.cls-1{isolation:isolate;}.cls-2{fill:#dfe2e5;}.cls-3{fill:#f7d6aa;}.cls-10,.cls-18,.cls-4,.cls-5{fill:#f9dcc5;}.cls-10,.cls-4,.cls-5,.cls-7,.cls-9{mix-blend-mode:multiply;}.cls-5{opacity:0.39;}.cls-6{fill:#f2f3f4;}.cls-17,.cls-7{fill:#ccd9dd;}.cls-8{fill:none;stroke:#4c5559;stroke-linecap:round;stroke-miterlimit:10;}.cls-10{opacity:0.4;}.cls-11{fill:#ffaeae;}.cls-12{fill:#e88989;}.cls-13{fill:#e2ab69;}.cls-14{fill:#4c5559;}.cls-15{fill:#566468;}.cls-16{fill:#b2c4cc;}.cls-19{fill:#fcdede;}</style></defs><g class="cls-1"><g id="Layer_2" data-name="Layer 2"><g id="OBJECTS"><g id="THREE"><path class="cls-2" d="M164.29,195.82c0,3.56-36,6.44-80.51,6.44s-80.52-2.88-80.52-6.44,36.05-6.43,80.52-6.43S164.29,192.27,164.29,195.82Z"/><path class="cls-3" d="M102.58,181.11s21.07,3.19,29.28-34c.08-.38.53-.35.5,0-.71,9.07-4.37,34-23.05,41.1"/><path class="cls-3" d="M48,137.15s-31-17.28-17.44,37.79"/><path class="cls-4" d="M48,137.15s-31-17.28-17.44,37.79"/><path class="cls-3" d="M40.36,110.31S36.49,141.82,25.5,185.6a2.15,2.15,0,0,1-.18.61c-.65,1-3.57,4.61-4.16,7.14a1.17,1.17,0,0,0,1.3,1.44l16.32.06a1.19,1.19,0,0,0,1-1c.75-6.14,18-39.6,20.06-74.12"/><path class="cls-5" d="M40.36,110.31S36.49,141.82,25.5,185.6a2.15,2.15,0,0,1-.18.61c-.65,1-3.57,4.61-4.16,7.14a1.17,1.17,0,0,0,1.3,1.44l16.32.06a1.19,1.19,0,0,0,1-1c.75-6.14,18-39.6,20.06-74.12"/><path class="cls-4" d="M35.45,140.34c-.62,3.3-1.31,6.84-2.07,10.57,1.66,6.39,6,23.5,6,29,0,4.51-4.39,11.08-7.35,14.95l6.71,0a1.19,1.19,0,0,0,1-1c.42-3.46,6.07-15.58,11.3-31.68Z"/><path class="cls-3" d="M32,70s6,12.27,6,25.6-3.86,24.27-4.75,31.78,8.08,61.53,16.5,66.88,41.09,4,48.13,2.07,14.64-11.83,16-22.25c1.22-9-14.74-37.17-29.77-82.45-2.29-6.89-3.58-20-5.82-27.41"/><path class="cls-4" d="M80.67,131.1,62,120.21s-5.79,27.51-17.66,64.7c1.76,4.74,3.6,8.16,5.42,9.32a23.12,23.12,0,0,0,7.91,2.51C63.52,184.31,76.87,158.43,80.67,131.1Z"/><path class="cls-6" d="M51,194.88l.68.3.45.16.71.25.52.16.75.22.58.15.81.19.62.13.87.18.64.11.95.17.65.09,1,.15.65.08,1.11.13.62.06,1.19.12.61.05,1.28.1.55,0,1.38.09.5,0,1.49.07.4,0,1.63.05h.3l1.76,0h2.11c-13-7-12.48-40.8-11-47.14,1.68-7-6.36-17.54-2.52-31.25,5.68-20.3,13.83-31,19.82-36.51-1.23-6.5-2.3-14-3.8-18.92L33,70s6,12.27,6,25.6-3.86,24.27-4.75,31.78,7.08,61.53,15.5,66.88a8.27,8.27,0,0,0,.89.49Z"/><path class="cls-7" d="M78.32,64.19,32,70a69.5,69.5,0,0,1,4.95,15.38q2.24.21,4.44.24a15.37,15.37,0,0,1,1.85,6c.71,7.25,6.27,9.86,11.55,6.83,3.9-2.24,4.17-10.55,1-16a13.54,13.54,0,0,0,4-3.85h.11l.62,0h.08l1.17.06h.08l1.61,0h.08c.6,0,1.24,0,1.91,0h.09c.68,0,1.39-.06,2.1-.11h.09c.71,0,1.44-.13,2.15-.23H70c.7-.11,1.4-.23,2.06-.39l.12,0c2.23-.54,4.13-1.41,5-2.83A36.72,36.72,0,0,0,80,69.69Q79.17,67,78.32,64.19Z"/><path class="cls-8" d="M79.28,57.9a.2.2,0,0,1,0-.08l0,.09Z"/><path class="cls-7" d="M50.85,194.82l.11.06.53.23.38.15.22.08.42.15.45.15.36.11.19.06c.48.14,1,.27,1.51.4l.26.06,1,.21.27.06,1.09.2h0c2-4.31,5-10.25,8.11-17.29-2.34-11.68-1.82-24.86-.93-28.58,1.65-6.92-6.09-17.19-2.7-30.57l-.15-.09s-5.79,27.51-17.66,64.7h0c.43,1.15.86,2.23,1.3,3.21l0,.12c.21.46.42.91.63,1.33l.07.13c.21.42.42.82.64,1.2v0c.21.37.42.71.63,1l.06.09c.2.3.41.57.61.83l.11.13a7.5,7.5,0,0,0,.6.64l.09.09a5.09,5.09,0,0,0,.62.49c.25.16.53.31.82.46Z"/><path class="cls-3" d="M63.44,115.11a747.58,747.58,0,0,1-24,75.22,2,2,0,0,1-.25.58c-.75.94-3.41,4.36-4.28,6.8A1.17,1.17,0,0,0,36,199.29l16.3-.36a1.17,1.17,0,0,0,1.12-.9c1.44-6,22.35-37.31,28.31-71.37"/><path class="cls-4" d="M39.42,190.33s3.58-.27,9.13,2.29a18.84,18.84,0,0,0-8.68-3.49Z"/><g class="cls-9"><path class="cls-4" d="M45.1,194.84c-.42.41-.24,2.88-.1,4.25l.93,0C45.76,197.09,45.46,194.48,45.1,194.84Z"/><path class="cls-4" d="M38.14,199.25c1-2.15,2.78-6.41,1.85-5.73s-2.29,4-3,5.75Z"/></g><path class="cls-3" d="M38.39,10.48S23.39.16,19.59,0,4.92,5.86,2.67,9.8,15.23,8,16.92,8.62c3.52,1.22,5.21,6.61,5.21,6.61"/><path class="cls-10" d="M2.65,10.91c1.63,1.36,12.81-2.79,14.27-2.29,3.52,1.22,5.21,6.61,5.21,6.61l15-4.4C33.57,8.42,22.7,1.29,19.54,1.16,15.75,1,4.94,7,2.65,10.91Z"/><path class="cls-4" d="M37.86,10.12c-.8-.54-2.46-1.66-4.49-3A37.18,37.18,0,0,0,19.88,11a15.54,15.54,0,0,1,2.25,4.28l15.23-4.45Z"/><path class="cls-11" d="M73,14.32l9.46,9.54S84.59,8.37,81.16,7.79,73,14.32,73,14.32Z"/><path class="cls-12" d="M81.16,7.79A4.52,4.52,0,0,0,78,8.87a2.89,2.89,0,0,1,.59,0C81,9.3,80.63,17,80.21,21.63l2.21,2.23S84.59,8.37,81.16,7.79Z"/><path class="cls-3" d="M84.38,28s2.12-10.47-.94-17.25c-4.56-10.1.82,6.5-2.1,14.28"/><path class="cls-3" d="M76.52,72.55c8-11.23,3.92-14.9,3-17.53s6.1-25.36,4.7-29.06S72.92,10.42,66.73,9.64s-22.25-.08-22.25-.08-5.62-2.14-8.74-2.1-12.83,3.46-15.42,7.33S13,36.4,13,36.4,1.75,39.17.25,41.88,4.24,71.52,8.07,75c1,.94,4.65.71,7.78.16C28.16,79,50.42,86,58.94,74.92,58.94,74.92,73.26,77.1,76.52,72.55Z"/><path class="cls-13" d="M12.15,49.61s-.53,4.4,1.2,14.76"/><path class="cls-4" d="M13.61,36.43s9.78.41,26,7.22c0,0-15-7.84-26-7.22Z"/><path class="cls-6" d="M19.35,35.59S30,36.78,46.72,43.29C46.72,43.29,32.19,36.78,19.35,35.59Z"/><path class="cls-4" d="M21.51,41.82S10.75,34.33,5.71,36.5s2.67,16.43,6.31,17S23,46,21.51,41.82Z"/><path class="cls-14" d="M22.89,41.21S10.25,34.56,4.4,36.38,7.72,50.72,12,51.25,24.7,44.86,22.89,41.21Z"/><path class="cls-15" d="M12.92,37.14c-3.11-.92-6.3-1.45-8.52-.76a2.67,2.67,0,0,0-1.42,1c1.32,1.84,2.74,3.19,3.8,3.34C8.45,41,11,39.3,12.92,37.14Z"/><path class="cls-7" d="M22.89,41.21s-1.51-.8-3.73-1.76c0,3.78-6.15,9.51-9.38,9.06-2.18-.31-5.87-5.11-7.26-9.2.22,4.3,6.23,11.54,9.44,11.94C16.21,51.77,24.7,44.86,22.89,41.21Z"/><path class="cls-13" d="M64.87,64.85s2.64-2.1,2.67,2.8C67.54,67.65,68.28,62.38,64.87,64.85Z"/><path class="cls-13" d="M65.29,66.08a1.93,1.93,0,0,1,.87,1.59S66.46,66.11,65.29,66.08Z"/><path class="cls-13" d="M57.19,69.87a19.71,19.71,0,0,1-15.71,7C34,76.67,14.93,70.5,14.93,70.5a11.72,11.72,0,0,1-3.77,2.29h0a10.07,10.07,0,0,1-1.64.47A7.77,7.77,0,0,0,11.45,73l2.78,2.35,1.62-.25-3.64-1.82a15.33,15.33,0,0,0,2.52-2.59s15.67,6.67,26.8,7,16.06-7.11,16.06-7.11c7.85-1.39,8.39-4,8.39-4C65.11,68.91,57.19,69.87,57.19,69.87Z"/><path class="cls-16" d="M8.48,37.86c0,.33-.81.57-1.78.53S5,38,5,37.71s.81-.57,1.77-.53S8.49,37.52,8.48,37.86Z"/><g class="cls-9"><path class="cls-17" d="M79.67,55.41l0,.09h0A.3.3,0,0,0,79.67,55.41Z"/><path class="cls-18" d="M79.18,48.73c-1.11-.06-2.66-4.09-2.3-1.71a55.16,55.16,0,0,0,2.63,8c-.4-1.23.81-6.55,2.13-12.34C81.46,43.45,80.2,48.78,79.18,48.73Z"/></g><path class="cls-4" d="M60.29,74.37c0-.43,1-2.16.36-1.5s-1.71,2-1.71,2,8,1.21,13.37-.06C67.85,75.59,60.31,74.8,60.29,74.37Z"/><path class="cls-4" d="M40.6,9.4c-.77.38-2.69.8-1.65.75s5.53-.59,5.53-.59A45.06,45.06,0,0,0,38.55,7.8C40.2,8.21,41.36,9,40.6,9.4Z"/><path class="cls-3" d="M64.82,10.25S77.76,3.11,82.11,3s7.94,5.76,9.14,6.25,5.27,3.37,6.51,5.25-.51,9.77-3.23,12.1-11-12-12.87-17.08-8.53,6.65-8.53,6.65"/><path class="cls-4" d="M78.48,9.12s1.2-1.22,2.28.82A74,74,0,0,1,85,22.28,54.56,54.56,0,0,0,84.85,16s-2.52-5.21-3.19-6.49S80.38,7.68,78.48,9.12Z"/><path class="cls-4" d="M97.76,14.53a14.05,14.05,0,0,0-2.71-2.7c1.46,4.06.07,12.34-2.13,12.47-2.49.15-7.21-6.79-7.31-6.95,3.16,5.39,7.18,10.77,8.92,9.28C97.25,24.3,99,16.42,97.76,14.53Z"/><path class="cls-4" d="M90,8.15h0L92.66,13c.17.31-.84-2.26-1.44-3.78A5.81,5.81,0,0,1,90,8.15Z"/><polygon class="cls-17" points="88.96 7.05 88.96 7.05 88.96 7.05 88.96 7.05"/><path class="cls-4" d="M8.74,55.06c0,.56-.26,1-.54,1s-.47-.47-.45-1,.26-1,.54-1S8.77,54.5,8.74,55.06Z"/><path class="cls-4" d="M5.89,51.68c0,.54-.38,1-.79,1a.89.89,0,0,1-.71-1c0-.54.38-1,.79-.95A.9.9,0,0,1,5.89,51.68Z"/><path class="cls-4" d="M5.68,56.46c0,.29-.19.51-.39.5s-.37-.24-.36-.53.19-.51.4-.5S5.7,56.17,5.68,56.46Z"/><path class="cls-4" d="M21.16,56.25a1,1,0,0,1-.94,1.06,1,1,0,0,1-.85-1.13,1,1,0,0,1,.94-1.06A1,1,0,0,1,21.16,56.25Z"/><path class="cls-4" d="M24.64,52.63a.83.83,0,1,1-.79-.87A.83.83,0,0,1,24.64,52.63Z"/><path class="cls-4" d="M29.33,60.22a1.08,1.08,0,1,1-1-1.13A1.09,1.09,0,0,1,29.33,60.22Z"/><path class="cls-4" d="M25.54,58.21a.39.39,0,0,1-.77,0,.39.39,0,0,1,.77,0Z"/><path class="cls-4" d="M32.23,52.31a.49.49,0,0,1-.51.47.5.5,0,0,1-.47-.51.49.49,0,1,1,1,0Z"/><path class="cls-8" d="M38.51,36.87S43,23.64,48.35,25.26s2.13,15,2.13,15"/><path class="cls-8" d="M18.48,33.23s1.86-11.88,4.95-11.14,2.36,11.05,2.36,11.05"/><path class="cls-8" d="M49.73,15.18s3.53-.72,4.75,4.09"/><path class="cls-8" d="M21.89,17.89s2.32-3.83,4.33-2.49"/><path class="cls-4" d="M25.32,186.21a18.59,18.59,0,0,1,5.23,1.61s-2.26-1.42-4.89-2.86Z"/><path class="cls-4" d="M25.41,189.4c-.78.7-2,4.13-2.42,5.4h.84C24.51,193.08,26.19,188.7,25.41,189.4Z"/><path class="cls-7" d="M39.19,114.41s2,4.64,8.47,6.47C47.66,120.88,41,128.49,39.19,114.41Z"/><path class="cls-4" d="M78.4,198c8.59-.12,16.42-.85,19.46-1.7a16.25,16.25,0,0,0,5.91-3.38,35.5,35.5,0,0,0,6.85-14.39s1.33-5.44,2.29-12.44c-1.72-7.08-5.4-17.51-10.12-30.52-9.89,1.85-21,22.17-19.68,56.69C83.11,192.26,78.53,195.91,78.4,198Z"/><path class="cls-4" d="M114,186c.32-1.73.85-4.86,1.31-8.66-6.78,4.67-12.68,3.78-12.68,3.78l6.73,7.19A27.13,27.13,0,0,0,114,186Z"/><path class="cls-3" d="M113.25,177.38s7.33-35.14-3.56-41.71-26.46,15-23.46,56.39c0,0-8.26,7-2.44,7.23s15.58,0,15.58,0S110.32,192.73,113.25,177.38Z"/><path class="cls-4" d="M86.23,192.06a15.63,15.63,0,0,1,7.6,1.42,21.93,21.93,0,0,0-7.69-2.82"/><g class="cls-9"><path class="cls-4" d="M83.79,199.29l.44,0c1-1.85,3-5.73,2.07-5.08s-2.29,3.74-2.85,5Z"/><path class="cls-4" d="M91.69,195.29c-.29.33,0,2.65.2,4.09h.63C92.3,197.47,92,195,91.69,195.29Z"/></g><path class="cls-11" d="M39.06,77.6A15.28,15.28,0,0,1,45,88.36c.71,7.25,6.27,9.86,11.55,6.83S60.45,78,52.93,74.9A20.72,20.72,0,0,1,39.06,77.6Z"/><path class="cls-19" d="M56.81,94.91c-5.28,3-10.84.42-11.55-6.83a15.51,15.51,0,0,0-5.45-10.41l-.75-.07A15.28,15.28,0,0,1,45,88.36c.71,7.25,6.27,9.86,11.55,6.83a4.74,4.74,0,0,0,1.08-.88A4.64,4.64,0,0,1,56.81,94.91Z"/><path class="cls-4" d="M52.93,74.9l-.49.3c4.45,5.12,4.77,16.13.69,18.79a6.73,6.73,0,0,1-4.8,1.18c2.23,1.64,5.25,1.71,8.2,0C61.81,92.16,60.45,78,52.93,74.9Z"/><path class="cls-4" d="M47.66,77.15s5.44,3.19,5.63,11.45c0,0,.9-7.62-4.64-11.77Z"/><path class="cls-4" d="M38.51,77.53a5.25,5.25,0,0,1,1.69,3.23l2,.11a13.28,13.28,0,0,0-3.14-3.27Z"/></g></g></g></g></svg>