<svg xmlns="http://www.w3.org/2000/svg" viewBox="0 0 161.03 199.86"><defs><style>.cls-1{isolation:isolate;}.cls-2{fill:#dfe2e5;}.cls-3{fill:#82756b;}.cls-4{fill:#f9dcc5;}.cls-13,.cls-4,.cls-6{mix-blend-mode:multiply;}.cls-5,.cls-6{fill:#edd0b9;}.cls-7{fill:#af6a3a;}.cls-8{fill:#ffeadc;}.cls-9{fill:#ef836a;}.cls-10{fill:#f99d8f;}.cls-11{fill:#cc9875;}.cls-12{fill:#ffe1dc;}.cls-14{fill:#ccd9dd;}.cls-15,.cls-16{fill:none;stroke-linecap:round;stroke-miterlimit:10;}.cls-15{stroke:#3d3631;}.cls-16{stroke:#4c5559;}</style></defs><g class="cls-1"><g id="Layer_2" data-name="Layer 2"><g id="OBJECTS"><g id="TWO"><ellipse class="cls-2" cx="80.52" cy="193.43" rx="80.52" ry="6.44"/><path class="cls-3" d="M42.74,169.65s-21.07,3.2-29.28-34c-.08-.39-.53-.35-.5,0,.71,9.08,4.37,34,23,41.11"/><path class="cls-4" d="M29.43,173.2A27,27,0,0,0,36,176.85l6.73-7.2s-6,.91-12.82-3.87A61.18,61.18,0,0,0,29.43,173.2Z"/><path class="cls-4" d="M29.43,173.2A27,27,0,0,0,36,176.85l6.73-7.2s-6,.91-12.82-3.87A61.18,61.18,0,0,0,29.43,173.2Z"/><path class="cls-3" d="M125.64,110.76a749.44,749.44,0,0,0,24,75.22,2,2,0,0,0,.24.58c.76.94,3.42,4.36,4.29,6.81a1.18,1.18,0,0,1-1.13,1.58l-16.31-.37a1.16,1.16,0,0,1-1.11-.89c-1.45-6-22.35-37.31-28.32-71.38"/><path class="cls-4" d="M149.67,186s-3.59-.27-9.14,2.29a18.84,18.84,0,0,1,8.69-3.49Z"/><path class="cls-4" d="M150.94,194.9c-1-2.15-2.78-6.41-1.85-5.73s2.3,4,3,5.75Z"/><path class="cls-3" d="M78.39,70.1s9.4,30.13-19,56.32-21.06,64.75-13.46,64.75,56.11,2.26,64.24,2.26,25.25-58.29,20.74-78.84S133,66.18,133,66.18"/><path class="cls-4" d="M128,178.16c3.36-11.69,6.05-24.85,6.79-35.52-6.06-19.41-9.15-31.88-9.15-31.88l-18,11.38c2.2,1.92,2.49,4,1.39,8.06C113.5,148.91,121.83,166.2,128,178.16Z"/><path class="cls-5" d="M130.87,114.59c-3.6-16.41-.08-37.47,1.48-45.29l-39.25,3L79.38,75a54.78,54.78,0,0,1-.15,15.77c2,3,5.66,6.8,12,10,13.23,6.76,16.58,7,14.34,15.21s-8.46,12.95-4.08,23.65c4,9.82-2,39.79-15,53.14,11.37.36,20.8.64,23.66.64C118.25,193.43,135.38,135.14,130.87,114.59Z"/><path class="cls-3" d="M89.93,10.78S86.84-1.13,82.61.09C80.9.58,78.13,4.14,72.9,18.31"/><path class="cls-6" d="M89.93,10.78S89.6,9.51,89,7.83c-4.17,1-10.84,3.82-12.92,6.93a18.16,18.16,0,0,0-1.35,2.73Z"/><path class="cls-6" d="M93.1,72.3,79.38,75a54.24,54.24,0,0,1,.46,9.18c12.19,2.74,27.07,4.34,33.28-4.5,0,0,14.4,1.58,17.47-3.11.23-.35.44-.69.65-1,.4-2.52.79-4.65,1.11-6.23Z"/><path class="cls-3" d="M130,74.35c8-11.22,3.92-14.89,3-17.53s6.1-25.36,4.7-29-11.29-15.54-17.48-16.32S98,11.37,98,11.37s-5.62-2.15-8.74-2.1S76.4,12.72,73.81,16.59s-7.37,21.62-7.37,21.62S55.24,41,53.74,43.68s4,29.64,7.82,33.09c1,1,4.64.72,7.78.16,12.31,3.88,34.57,10.87,43.09-.21C112.43,76.72,126.75,78.91,130,74.35Z"/><path class="cls-7" d="M65.64,51.41s-.53,4.4,1.2,14.77"/><path class="cls-5" d="M53.74,43.68c-1.5,2.71,4,29.64,7.82,33.09,1,1,4.64.72,7.78.16,11.07,3.49,30.17,9.48,40.11,2.6a27,27,0,0,0,2.85-2.66l.13-.15h0c8.12-8.93,6.91-20.46-1.84-27.94-9.71-8.31-17.45-5.21-19.14-10s1-13.09,3.09-15,.14-5.22,3.43-8.42a18,18,0,0,1,7.62-4.18c-4.24.09-7.62.24-7.62.24A43,43,0,0,0,91.49,9.5c1.81.88.47,1.13-.75,1.63s.89,2.08.1,2.73-2.49,1.83-2.4,3.63.19,3.27-1.92,6.88-1.83,10.47-5.87,12.35S66.44,38.2,66.44,38.2,55.24,41,53.74,43.68Z"/><path class="cls-6" d="M67.1,38.23s9.78.42,26,7.22c0,0-15-7.84-26-7.22Z"/><path class="cls-8" d="M72.84,37.39s10.68,1.19,27.37,7.7C100.21,45.09,85.68,38.58,72.84,37.39Z"/><path class="cls-6" d="M75,43.62s-10.76-7.49-15.8-5.31,2.67,16.42,6.31,17S76.51,47.8,75,43.62Z"/><path class="cls-9" d="M76.38,43s-12.64-6.65-18.49-4.82,3.32,14.33,7.56,14.86S78.19,46.67,76.38,43Z"/><path class="cls-10" d="M66.41,38.94c-3.11-.92-6.3-1.44-8.52-.75a2.62,2.62,0,0,0-1.42,1c1.32,1.83,2.74,3.18,3.8,3.34C61.94,42.76,64.48,41.11,66.41,38.94Z"/><path class="cls-6" d="M76.38,43s-1.51-.79-3.73-1.76c0,3.78-6.15,9.51-9.38,9.06-2.18-.3-5.87-5.1-7.26-9.2.22,4.3,6.23,11.54,9.44,11.94C69.7,53.58,78.19,46.67,76.38,43Z"/><path class="cls-11" d="M95,79.58c-7.52-.24-26.6-7.28-26.6-7.28a11.66,11.66,0,0,1-3.77,2.3h0a11.24,11.24,0,0,1-1.64.46,7.81,7.81,0,0,0,1.92-.23l2.78,2.35,1.62-.25L65.7,75.12a15.72,15.72,0,0,0,2.52-2.6S83.89,79.19,95,79.58"/><path class="cls-12" d="M62,39.66c0,.33-.81.57-1.78.53s-1.74-.34-1.72-.68.81-.57,1.77-.53S62,39.33,62,39.66Z"/><g class="cls-13"><path class="cls-14" d="M133.16,57.21l0,.09h0A.36.36,0,0,0,133.16,57.21Z"/><path class="cls-5" d="M132.66,50.53c-1.1-.05-2.65-4.09-2.29-1.71a55.72,55.72,0,0,0,2.63,8c-.4-1.24.81-6.55,2.13-12.35C135,45.25,133.68,50.59,132.66,50.53Z"/></g><path class="cls-6" d="M113.78,76.17c0-.43,1-2.16.36-1.49s-1.71,2-1.71,2,8,1.22,13.37-.06C121.34,77.39,113.8,76.61,113.78,76.17Z"/><path class="cls-6" d="M94.09,11.2c-.77.39-2.69.8-1.65.76S98,11.37,98,11.37A46,46,0,0,0,92,9.6C93.69,10,94.85,10.82,94.09,11.2Z"/><path class="cls-6" d="M62.23,56.87c0,.55-.26,1-.54,1s-.47-.47-.45-1,.26-1,.54-1S62.26,56.31,62.23,56.87Z"/><path class="cls-6" d="M59.38,53.48c0,.55-.38,1-.79,1a1,1,0,1,1,.79-1Z"/><path class="cls-6" d="M59.17,58.26c0,.29-.19.52-.39.51s-.37-.25-.36-.54.19-.51.4-.5A.45.45,0,0,1,59.17,58.26Z"/><path class="cls-6" d="M74.65,58.06a.91.91,0,1,1-.85-1.14A1,1,0,0,1,74.65,58.06Z"/><path class="cls-6" d="M78.13,54.43a.83.83,0,1,1-.79-.86A.82.82,0,0,1,78.13,54.43Z"/><path class="cls-6" d="M82.81,62a1.08,1.08,0,0,1-1.12,1,1.09,1.09,0,0,1-1-1.13,1.08,1.08,0,0,1,2.16.09Z"/><path class="cls-6" d="M79,60a.39.39,0,1,1-.37-.41A.39.39,0,0,1,79,60Z"/><path class="cls-6" d="M85.72,54.11a.49.49,0,1,1-.47-.51A.49.49,0,0,1,85.72,54.11Z"/><path class="cls-15" d="M108.3,27.52s-3.33,1.36-5.41-3.15"/><path class="cls-15" d="M77.72,21s-2.31,3.83-4.33,2.49"/><path class="cls-3" d="M115.65,14.18S128.42.66,133.2.1s7.75,16,4.46,31.84"/><path class="cls-8" d="M135.73,24.6s.75-18.4-2-20.27-7.79,11.35-8,15.29,4,10.8,6.94,10.61S135.66,27,135.73,24.6Z"/><path class="cls-6" d="M133.76,4.33c-.69-.48-1.54,0-2.41,1.09a1.19,1.19,0,0,1,.22.12c2.36,1.62,1.71,17.56,1.71,17.56-.06,2.11-.08,4.71-2.61,4.88a3.53,3.53,0,0,1-2.4-1.24c1.36,2,3.06,3.58,4.45,3.49,2.92-.19,2.94-3.19,3-5.63C135.73,24.6,136.48,6.2,133.76,4.33Z"/><polygon class="cls-6" points="118.5 11.28 114.73 15.31 117.13 11.2 118.5 11.28"/><path class="cls-16" d="M79,28.73s-2.61,6.1-5.71,6.1-2-6.1-2-6.1"/><path class="cls-16" d="M95.69,30.23s-1.3,7.85,3.77,10,8-5.38,8-5.38"/><path class="cls-4" d="M61.59,186.11c2.53-34.89,1-53.27-6.55-55.31C36.61,151.28,37.11,177.12,41.69,187a32.81,32.81,0,0,0,3.87,4.09,1.88,1.88,0,0,0,.33,0c2.72,0,10.71.29,20.2.66C65.82,189.71,61.59,186.11,61.59,186.11Z"/><path class="cls-3" d="M33.17,171.43s-4.71-31.78,15.57-40.07c11.77-4.81,14.45,13.35,11.44,54.75,0,0,8.26,7,2.44,7.23s-15.58,0-15.58,0S36.09,186.77,33.17,171.43Z"/><path class="cls-4" d="M60.18,186.11a15.63,15.63,0,0,0-7.6,1.42,21.81,21.81,0,0,1,7.7-2.82"/><path class="cls-6" d="M62.62,193.34h-.44c-1-1.84-3-5.72-2.07-5.07s2.29,3.73,2.85,5Z"/><path class="cls-6" d="M54.73,189.33c.28.34,0,2.65-.21,4.09h-.63C54.11,191.52,54.46,189,54.73,189.33Z"/><path class="cls-4" d="M150.94,194.9c-1-2.15-2.78-6.41-1.85-5.73s2.3,4,3,5.75Z"/><path class="cls-6" d="M62.62,193.34h-.44c-1-1.84-3-5.72-2.07-5.07s2.29,3.73,2.85,5Z"/><path class="cls-6" d="M54.73,189.33c.28.34,0,2.65-.21,4.09h-.63C54.11,191.52,54.46,189,54.73,189.33Z"/><path class="cls-4" d="M124.66,109.43s.53,5.07-6.77,7.32C117.89,116.75,124.85,125.76,124.66,109.43Z"/><path class="cls-4" d="M106.27,188.3a1.35,1.35,0,0,1-.21-.59c-4.48-36.63-6.93-73.38-6.93-73.38l-18.91,7.19c1.8,32,7.45,62.3,9.08,71.24,8.91.34,16.6.62,20,.66A39.56,39.56,0,0,0,106.27,188.3Z"/><path class="cls-4" d="M106.27,188.3a1.35,1.35,0,0,1-.21-.59c-4.48-36.63-6.93-73.38-6.93-73.38l-18.91,7.19c1.8,32,7.45,62.3,9.08,71.24,8.91.34,16.6.62,20,.66A39.56,39.56,0,0,0,106.27,188.3Z"/><path class="cls-3" d="M100.16,110.76s2.25,39,9,75.22a1.26,1.26,0,0,0,.25.58c.75.94,3.41,4.36,4.28,6.81a1.18,1.18,0,0,1-1.13,1.58l-18.31-.37a1.16,1.16,0,0,1-1.11-.89c-1.44-6-9.85-38-13.94-72.13"/><path class="cls-4" d="M109.19,186s-3.59-.27-9.13,2.29a18.84,18.84,0,0,1,8.68-3.49Z"/><path class="cls-4" d="M103.51,190.49c.41.41.24,2.88.1,4.26l-.93,0C102.85,192.74,103.15,190.13,103.51,190.49Z"/><path class="cls-4" d="M110.46,194.9c-.95-2.15-2.77-6.41-1.84-5.73s2.29,4,3,5.75Z"/><path class="cls-4" d="M103.51,190.49c.41.41.24,2.88.1,4.26l-.93,0C102.85,192.74,103.15,190.13,103.51,190.49Z"/><path class="cls-4" d="M110.46,194.9c-.95-2.15-2.77-6.41-1.84-5.73s2.29,4,3,5.75Z"/></g></g></g></g></svg>