<svg xmlns="http://www.w3.org/2000/svg" viewBox="0 0 199.32 213.51"><defs><style>.cls-1{isolation:isolate;}.cls-2{fill:#dfe2e5;}.cls-3{fill:#8b9ca5;}.cls-4,.cls-5,.cls-6{fill:#ccd9dd;}.cls-14,.cls-4,.cls-5{mix-blend-mode:multiply;}.cls-5{opacity:0.33;}.cls-7{fill:none;stroke:#4c5559;stroke-linecap:round;stroke-miterlimit:10;}.cls-8{fill:#ffaeae;}.cls-9{fill:#e88989;}.cls-10{fill:#4b5b60;}.cls-11{fill:#b2c4cc;}.cls-12{fill:#4c5559;}.cls-13{fill:#566468;}</style></defs><g class="cls-1"><g id="Layer_2" data-name="Layer 2"><g id="OBJECTS"><g id="ONE"><path class="cls-2" d="M199.32,207.07c0,3.56-44.06,6.44-98.41,6.44S2.5,210.63,2.5,207.07s44.06-6.43,98.41-6.43S199.32,203.52,199.32,207.07Z"/><path class="cls-3" d="M44.1,126.51s3.21,26.3-2.55,67.73a1.16,1.16,0,0,1-.25.58c-.75.94-3.41,4.36-4.28,6.81a1.18,1.18,0,0,0,1.13,1.58l16.31-.37a1.15,1.15,0,0,0,1.11-.89,460.13,460.13,0,0,0,11.21-84.34"/><path class="cls-3" d="M89.79,121.06s7.41,29.13,34.73,46.25a93.41,93.41,0,0,1,8.94,26.51,25.77,25.77,0,0,0-4.81,7.61,1.33,1.33,0,0,0,1.26,1.78H142s1-34.31-5.84-45a71.18,71.18,0,0,0-4.91-6.42s-.77-18.13-12.13-41.52"/><path class="cls-4" d="M45,145.94c3.52,4.34,10.82,9.67,18.23,13.42,1.65-12.43,3-26.71,3.56-41.75l-22.68,8.9A184,184,0,0,1,45,145.94Z"/><path class="cls-5" d="M136.18,158.26a71.18,71.18,0,0,0-4.91-6.42,93.85,93.85,0,0,0-3.71-19.58l-9.46-3.37-18.07,14a86,86,0,0,0,5.58,7.62c4.37-1.72,12.48-4.71,15.23-4.32,3.85.55,5.82,9,5.82,9a39.93,39.93,0,0,1,8.45,7.24c3.54,4.19,5.61,21.7,5.7,40.74H142S143,168.9,136.18,158.26Z"/><path class="cls-5" d="M136.18,158.26a71.18,71.18,0,0,0-4.91-6.42,93.85,93.85,0,0,0-3.71-19.58l-9.46-3.37-18.07,14a86,86,0,0,0,5.58,7.62c4.37-1.72,12.48-4.71,15.23-4.32,3.85.55,5.82,9,5.82,9a39.93,39.93,0,0,1,8.45,7.24c3.54,4.19,5.61,21.7,5.7,40.74H142S143,168.9,136.18,158.26Z"/><path class="cls-5" d="M89.79,121.06s7.41,29.13,34.73,46.25a93.41,93.41,0,0,1,8.94,26.51,25.77,25.77,0,0,0-4.81,7.61,1.33,1.33,0,0,0,1.26,1.78H142s1-34.31-5.84-45a71.18,71.18,0,0,0-4.91-6.42s-.77-18.13-12.13-41.52"/><path class="cls-5" d="M89.79,121.06s7.41,29.13,34.73,46.25a93.41,93.41,0,0,1,8.94,26.51,25.77,25.77,0,0,0-4.81,7.61,1.33,1.33,0,0,0,1.26,1.78H142s1-34.31-5.84-45a71.18,71.18,0,0,0-4.91-6.42s-.77-18.13-12.13-41.52"/><path class="cls-5" d="M44.1,126.51s3.21,26.3-2.55,67.73a1.16,1.16,0,0,1-.25.58c-.75.94-3.41,4.36-4.28,6.81a1.18,1.18,0,0,0,1.13,1.58l16.31-.37a1.15,1.15,0,0,0,1.11-.89,460.13,460.13,0,0,0,11.21-84.34"/><path class="cls-5" d="M44.1,126.51s3.21,26.3-2.55,67.73a1.16,1.16,0,0,1-.25.58c-.75.94-3.41,4.36-4.28,6.81a1.18,1.18,0,0,0,1.13,1.58l16.31-.37a1.15,1.15,0,0,0,1.11-.89,460.13,460.13,0,0,0,11.21-84.34"/><path class="cls-3" d="M31.38,68s7,24.74,6.84,32.42.15,23.49,2.18,30.69,24.18,21.63,35.44,21.6,38.83-14,54.8-16.38,27.2-1,22.72-14.77S147,101.94,138.83,99.93,93.22,88,89.53,84.57,79.29,57.09,79.29,57.09"/><path class="cls-6" d="M76.05,144.69c-5.65-2.67-15.3-14.31-16-21s2.24-13.56,1.14-18.38S59.65,96,63,91s2-19,2-19l-31.1,5.58c2,7.83,4.41,18.34,4.29,22.88-.2,7.69.15,23.49,2.18,30.69s24.18,21.63,35.44,21.6c6.29,0,17.67-4.4,29.27-8.67C96.4,144.73,80.42,146.76,76.05,144.69Z"/><path class="cls-4" d="M76.92,57.8v0a1.3,1.3,0,0,1,0-.13L31.38,68s2.1,7.37,4,15.31c8.17,1,19-.1,23.76-5.3l.9.08h.06c.6,0,1.25.08,1.93.1h.08c.68,0,1.38,0,2.1,0h.09c.72,0,1.45,0,2.16-.1h.11c.71-.06,1.41-.14,2.09-.26l.12,0c2.26-.4,4.21-1.15,5.18-2.51C82,64.11,77.85,60.44,76.92,57.8Z"/><path class="cls-7" d="M77.12,58.28a.36.36,0,0,1,0-.09l0,.09Z"/><path class="cls-3" d="M38.39,10.48S23.39.16,19.59,0,4.92,5.86,2.67,9.8,15.23,8,16.92,8.62c3.52,1.22,5.21,6.61,5.21,6.61"/><path class="cls-5" d="M2.65,10.91c1.63,1.36,12.81-2.79,14.27-2.29,3.52,1.22,5.21,6.61,5.21,6.61l15-4.4C33.57,8.42,22.7,1.29,19.54,1.16,15.75,1,4.94,7,2.65,10.91Z"/><path class="cls-5" d="M2.65,10.91c1.63,1.36,12.81-2.79,14.27-2.29,3.52,1.22,5.21,6.61,5.21,6.61l15-4.4C33.57,8.42,22.7,1.29,19.54,1.16,15.75,1,4.94,7,2.65,10.91Z"/><path class="cls-4" d="M37.86,10.12c-.8-.54-2.46-1.66-4.49-3A37.18,37.18,0,0,0,19.88,11a15.54,15.54,0,0,1,2.25,4.28l15.23-4.45Z"/><path class="cls-8" d="M73,14.32l9.46,9.54S84.59,8.37,81.16,7.79,73,14.32,73,14.32Z"/><path class="cls-9" d="M81.16,7.79A4.52,4.52,0,0,0,78,8.87a2.89,2.89,0,0,1,.59,0C81,9.3,80.63,17,80.21,21.63l2.21,2.23S84.59,8.37,81.16,7.79Z"/><path class="cls-3" d="M84.38,28s2.12-10.47-.94-17.25c-4.56-10.1.82,6.5-2.1,14.28"/><path class="cls-3" d="M76.52,72.55c8-11.22,3.92-14.9,3-17.53s6.1-25.36,4.7-29.06S72.92,10.42,66.73,9.64s-22.25-.08-22.25-.08-5.62-2.14-8.74-2.1-12.83,3.46-15.42,7.33S13,36.4,13,36.4,1.75,39.17.25,41.88,4.24,71.52,8.07,75c1,.94,4.65.71,7.78.16C28.16,79,50.42,86,58.94,74.92,58.94,74.92,73.26,77.1,76.52,72.55Z"/><path class="cls-10" d="M12.15,49.61s-.53,4.4,1.2,14.76"/><path class="cls-4" d="M13.61,36.43s9.78.41,26,7.22c0,0-15-7.84-26-7.22Z"/><path class="cls-11" d="M19.35,35.59S30,36.78,46.72,43.29C46.72,43.29,32.19,36.78,19.35,35.59Z"/><path class="cls-4" d="M21.51,41.82S10.75,34.33,5.71,36.5s2.67,16.43,6.31,17S23,46,21.51,41.82Z"/><path class="cls-12" d="M22.89,41.21S10.25,34.56,4.4,36.38,7.72,50.72,12,51.25,24.7,44.86,22.89,41.21Z"/><path class="cls-13" d="M12.92,37.14c-3.11-.92-6.3-1.45-8.52-.76a2.67,2.67,0,0,0-1.42,1c1.32,1.84,2.74,3.19,3.8,3.34C8.45,41,11,39.3,12.92,37.14Z"/><path class="cls-4" d="M22.89,41.21s-1.51-.8-3.73-1.76c0,3.78-6.15,9.51-9.38,9.06-2.18-.31-5.87-5.11-7.26-9.2.22,4.3,6.23,11.54,9.44,11.94C16.21,51.77,24.7,44.86,22.89,41.21Z"/><path class="cls-10" d="M64.87,64.85s2.64-2.1,2.67,2.8C67.54,67.65,68.28,62.38,64.87,64.85Z"/><path class="cls-10" d="M65.29,66.08a1.93,1.93,0,0,1,.87,1.59S66.46,66.11,65.29,66.08Z"/><path class="cls-10" d="M57.19,69.87a19.71,19.71,0,0,1-15.71,7C34,76.67,14.93,70.5,14.93,70.5a11.72,11.72,0,0,1-3.77,2.29h0a10.07,10.07,0,0,1-1.64.47A7.77,7.77,0,0,0,11.45,73l2.78,2.35,1.62-.25-3.64-1.82a15.33,15.33,0,0,0,2.52-2.59s15.67,6.67,26.8,7,16.06-7.11,16.06-7.11c7.85-1.39,8.39-4,8.39-4C65.11,68.91,57.19,69.87,57.19,69.87Z"/><path class="cls-11" d="M8.48,37.86c0,.33-.81.57-1.78.53S5,38,5,37.71s.81-.57,1.77-.53S8.49,37.52,8.48,37.86Z"/><g class="cls-14"><path class="cls-6" d="M79.67,55.41l0,.09h0A.3.3,0,0,0,79.67,55.41Z"/><path class="cls-6" d="M79.18,48.73c-1.11-.06-2.66-4.09-2.3-1.71a55.16,55.16,0,0,0,2.63,8c-.4-1.23.81-6.55,2.13-12.34C81.46,43.45,80.19,48.78,79.18,48.73Z"/></g><path class="cls-4" d="M60.29,74.37c0-.43,1-2.16.36-1.5s-1.71,2-1.71,2,8,1.21,13.37-.06C67.85,75.59,60.31,74.8,60.29,74.37Z"/><path class="cls-4" d="M40.6,9.4c-.77.38-2.69.8-1.65.75s5.53-.59,5.53-.59A45.06,45.06,0,0,0,38.55,7.8C40.2,8.21,41.36,9,40.6,9.4Z"/><path class="cls-3" d="M64.82,10.25S77.76,3.11,82.11,3s7.94,5.76,9.14,6.25,5.27,3.37,6.51,5.25-.51,9.77-3.23,12.1-11-12-12.87-17.08-8.53,6.65-8.53,6.65"/><path class="cls-4" d="M78.48,9.12s1.2-1.22,2.28.82A74,74,0,0,1,85,22.28,54.56,54.56,0,0,0,84.85,16s-2.52-5.21-3.19-6.49S80.38,7.68,78.48,9.12Z"/><path class="cls-4" d="M97.76,14.53a14.05,14.05,0,0,0-2.71-2.7c1.46,4.06.07,12.34-2.13,12.47-2.49.15-7.21-6.79-7.31-6.95,3.16,5.39,7.18,10.77,8.92,9.28C97.25,24.3,99,16.42,97.76,14.53Z"/><path class="cls-4" d="M90,8.15h0L92.66,13c.17.31-.84-2.26-1.44-3.78A5.81,5.81,0,0,1,90,8.15Z"/><path class="cls-6" d="M87.94,6c-1.61-1.53-3.62-3-5.83-3-3.88.07-14.62,5.77-16.87,7h0S75.85,4.41,80.81,3.71A9,9,0,0,1,87.94,6Z"/><polygon class="cls-6" points="88.96 7.05 88.96 7.05 88.96 7.05 88.96 7.05"/><path class="cls-4" d="M8.74,55.06c0,.56-.26,1-.54,1s-.47-.47-.45-1,.26-1,.54-1S8.77,54.5,8.74,55.06Z"/><path class="cls-4" d="M5.89,51.68c0,.54-.38,1-.79,1a.89.89,0,0,1-.71-1c0-.54.38-1,.79-.95A.9.9,0,0,1,5.89,51.68Z"/><path class="cls-4" d="M5.68,56.46c0,.29-.19.51-.39.5s-.37-.24-.36-.53.19-.51.4-.5S5.7,56.17,5.68,56.46Z"/><path class="cls-4" d="M21.16,56.25a1,1,0,0,1-.94,1.06,1,1,0,0,1-.85-1.13,1,1,0,0,1,.94-1.06A1,1,0,0,1,21.16,56.25Z"/><path class="cls-4" d="M24.64,52.63a.83.83,0,1,1-.79-.87A.83.83,0,0,1,24.64,52.63Z"/><path class="cls-4" d="M29.33,60.22a1.08,1.08,0,1,1-1-1.13A1.09,1.09,0,0,1,29.33,60.22Z"/><circle class="cls-4" cx="25.16" cy="58.2" r="0.39" transform="translate(-10.06 5.48) rotate(-10.37)"/><path class="cls-4" d="M32.23,52.31a.49.49,0,0,1-.51.47.5.5,0,0,1-.47-.51.49.49,0,1,1,1,0Z"/><path class="cls-7" d="M38.51,36.87S43,23.64,48.35,25.26s2.13,15,2.13,15"/><path class="cls-7" d="M18.48,33.23s1.86-11.88,4.95-11.14,2.36,11.05,2.36,11.05"/><path class="cls-7" d="M49.73,15.18s3.53-.72,4.75,4.09"/><path class="cls-7" d="M21.89,17.89s2.32-3.83,4.33-2.49"/><path class="cls-4" d="M75.84,152.71c.36,0,.75,0,1.14-.05l-5.12-16.07s.93,9.41-2.34,11.67-9.34-.55-12.95-2.48C63.3,149.72,70.7,152.72,75.84,152.71Z"/><path class="cls-4" d="M42,94.19s2.29,4.34,8.9,5.07C50.89,99.26,46.29,104.86,42,94.19Z"/><path class="cls-3" d="M71.6,133.8s3.21,26.3-2.55,67.73a1.16,1.16,0,0,1-.25.58c-.75.94-3.41,4.36-4.28,6.81a1.18,1.18,0,0,0,1.13,1.58l16.3-.37a1.18,1.18,0,0,0,1.12-.89,460.15,460.15,0,0,0,11.21-84.35"/><path class="cls-3" d="M122.71,128.34s7.41,29.14,34.73,46.26a93.62,93.62,0,0,1,8.95,26.5,26,26,0,0,0-4.82,7.62,1.34,1.34,0,0,0,1.26,1.78H175s1-34.31-5.85-44.95a69.22,69.22,0,0,0-4.91-6.42s-.77-18.13-12.13-41.52"/><path class="cls-4" d="M69.05,201.53s3.58-.27,9.13,2.29a23.7,23.7,0,0,0-9-3.18Z"/><path class="cls-4" d="M93.82,134.7s-.59,9.05-1.06,13.83l1.52-.53S93.79,135.19,93.82,134.7Z"/><polygon class="cls-4" points="41.55 194.24 46 195.67 41.68 193.29 41.55 194.24"/><path class="cls-4" d="M40.6,203.15c.76-1.88,2.58-6.56,1.62-5.68s-2,4.2-2.52,5.7Z"/><g class="cls-14"><path class="cls-6" d="M74.73,206c-.42.41-.24,2.88-.1,4.25l.93,0C75.39,208.29,75.09,205.68,74.73,206Z"/><path class="cls-6" d="M67.77,210.45c1-2.15,2.78-6.41,1.85-5.73s-2.29,4-3,5.75Z"/></g><polygon class="cls-4" points="133.46 193.81 136.81 195.01 133.36 193.18 133.46 193.81"/><path class="cls-4" d="M131.48,203.21c.65-1.46,3-6.8,1.64-5a17,17,0,0,0-2.32,5Z"/><path class="cls-4" d="M166.39,201.1a8.72,8.72,0,0,1,5.46,2.39s-2.27-2.83-5.54-2.86Z"/><g class="cls-14"><path class="cls-6" d="M163.93,210.5c.65-1.88,2.15-6.33,1.52-5.72s-1.94,4.34-2.41,5.72Z"/><path class="cls-6" d="M169.21,206.26c-.3.43.2,3.08.44,4.24h.67C170.06,208.91,169.5,205.85,169.21,206.26Z"/></g><path class="cls-5" d="M123.13,129.8s2.47,6.83-2.08,8.78l4.9-1.32Z"/><path class="cls-3" d="M136.33,100.93s20.82-4.6,15.12-42.21c0-.39.38-.51.49-.14,2.6,8.73,8.13,33.26-6.74,46.65"/><path class="cls-4" d="M138.83,99.93s3.82,1,5.88,2.93a9.76,9.76,0,0,0-4-4Z"/></g></g></g></g></svg>