<svg xmlns="http://www.w3.org/2000/svg" viewBox="0 0 198.67 216.15"><defs><style>.cls-1{isolation:isolate;}.cls-2{fill:#dfe2e5;}.cls-3{fill:#d3905e;}.cls-15,.cls-4,.cls-5{fill:#edd0b9;}.cls-4{opacity:0.39;}.cls-13,.cls-4,.cls-5,.cls-6{mix-blend-mode:multiply;}.cls-14,.cls-6{fill:#ccd9dd;}.cls-6{opacity:0.33;}.cls-7{fill:#ffeadc;}.cls-16,.cls-8{fill:none;stroke-linecap:round;stroke-miterlimit:10;}.cls-8{stroke:#4c5559;}.cls-9{fill:#af6a3a;}.cls-10{fill:#ef836a;}.cls-11{fill:#f99d8f;}.cls-12{fill:#ffe1dc;}.cls-16{stroke:#7c5133;}</style></defs><g class="cls-1"><g id="Layer_2" data-name="Layer 2"><g id="OBJECTS"><g id="FOUR"><path class="cls-2" d="M196.81,209.71c0,3.55-44.06,6.44-98.4,6.44S0,213.26,0,209.71s44.06-6.44,98.41-6.44S196.81,206.16,196.81,209.71Z"/><path class="cls-3" d="M162.23,10.78S165.32-1.13,169.55.09c1.71.49,4.48,4.05,9.72,18.22"/><path class="cls-3" d="M155.43,129.28S152.22,155.58,158,197a1.16,1.16,0,0,0,.25.58c.75.94,3.41,4.36,4.28,6.81a1.18,1.18,0,0,1-1.13,1.58l-16.3-.37a1.17,1.17,0,0,1-1.12-.89,460.13,460.13,0,0,1-11.21-84.34"/><path class="cls-4" d="M155.43,129.28S152.22,155.58,158,197a1.16,1.16,0,0,0,.25.58c.75.94,3.41,4.36,4.28,6.81a1.18,1.18,0,0,1-1.13,1.58l-16.3-.37a1.17,1.17,0,0,1-1.12-.89,460.13,460.13,0,0,1-11.21-84.34"/><path class="cls-3" d="M109.74,123.83S102.34,153,75,170.08a93.42,93.42,0,0,0-8.94,26.5,26,26,0,0,1,4.82,7.62A1.34,1.34,0,0,1,69.63,206H57.51s-1-34.31,5.84-44.95a71.18,71.18,0,0,1,4.91-6.42s.77-18.13,12.13-41.52"/><path class="cls-4" d="M109.74,123.83S102.34,153,75,170.08a93.42,93.42,0,0,0-8.94,26.5,26,26,0,0,1,4.82,7.62A1.34,1.34,0,0,1,69.63,206H57.51s-1-34.31,5.84-44.95a71.18,71.18,0,0,1,4.91-6.42s.77-18.13,12.13-41.52"/><path class="cls-5" d="M154.55,148.71c-3.53,4.34-10.83,9.67-18.24,13.42-1.64-12.43-3-26.71-3.56-41.75l22.68,8.9A182.69,182.69,0,0,0,154.55,148.71Z"/><path class="cls-6" d="M63.35,161a71.18,71.18,0,0,1,4.91-6.42A93.85,93.85,0,0,1,72,135l9.46-3.37,18.07,14a84,84,0,0,1-5.58,7.62c-4.37-1.72-12.48-4.71-15.23-4.32-3.84.55-5.82,9-5.82,9a39.93,39.93,0,0,0-8.45,7.24c-3.54,4.19-5.61,21.7-5.7,40.74H57.51S56.52,171.67,63.35,161Z"/><path class="cls-5" d="M63.35,161a71.18,71.18,0,0,1,4.91-6.42A93.85,93.85,0,0,1,72,135l9.46-3.37,18.07,14a84,84,0,0,1-5.58,7.62c-4.37-1.72-12.48-4.71-15.23-4.32-3.84.55-5.82,9-5.82,9a39.93,39.93,0,0,0-8.45,7.24c-3.54,4.19-5.61,21.7-5.7,40.74H57.51S56.52,171.67,63.35,161Z"/><polygon class="cls-5" points="157.98 197.01 153.53 198.44 157.85 196.06 157.98 197.01"/><path class="cls-5" d="M158.93,205.92c-.76-1.88-2.58-6.56-1.61-5.68s2.05,4.2,2.51,5.7Z"/><polygon class="cls-5" points="66.07 196.58 62.72 197.78 66.17 195.95 66.07 196.58"/><path class="cls-5" d="M68.06,206c-.66-1.46-3-6.8-1.65-4.95A17,17,0,0,1,68.73,206Z"/><path class="cls-3" d="M167.29,69.8s-7,24.74-6.84,32.43-.14,23.49-2.18,30.69-24.18,21.63-35.44,21.59S84,140.47,68,138.14s-27.2-1-22.72-14.78,6.37-19.62,14.54-21.63,45.6-11.93,49.3-15.36S119.38,58.9,119.38,58.9"/><path class="cls-7" d="M70.89,137.31c10,1.69,43.55,12.2,49,9.39s19-19.52,17.84-30.22S134,74.53,134,74.53l30.33,6.6c-1.88,7.57-3.94,16.89-3.84,21.1.2,7.69-.14,23.49-2.18,30.69s-24.18,21.63-35.44,21.59c-10.91,0-37.16-13.2-53.31-16.13C69.2,137.5,69.58,137.09,70.89,137.31Z"/><path class="cls-5" d="M121.75,59.61a0,0,0,0,1,0,0s0-.09,0-.13L167.29,69.8s-2.09,7.37-4,15.32c-8.17,1-19-.1-23.75-5.3l-.91.07h-.06l-1.93.1h-.08q-1,0-2.1,0h-.09q-1.08,0-2.16-.09h-.1c-.72-.06-1.42-.14-2.1-.25l-.11,0c-2.26-.39-4.22-1.15-5.19-2.5C116.7,65.91,120.82,62.24,121.75,59.61Z"/><path class="cls-8" d="M121.55,60.08l0-.08,0,.09Z"/><path class="cls-5" d="M162.23,10.78s.33-1.27.93-2.95c4.16,1,10.83,3.82,12.91,6.93a17.14,17.14,0,0,1,1.36,2.73Z"/><path class="cls-3" d="M122.15,74.35c-8-11.22-3.92-14.89-3-17.53s-6.1-25.36-4.7-29S125.75,12.23,132,11.45s22.24-.08,22.24-.08,5.62-2.15,8.74-2.1,12.84,3.45,15.42,7.32,7.37,21.62,7.37,21.62,11.2,2.77,12.7,5.47-4,29.64-7.82,33.09c-1,1-4.64.72-7.78.16-12.3,3.88-34.57,10.87-43.08-.21C139.74,76.72,125.42,78.91,122.15,74.35Z"/><path class="cls-9" d="M186.52,51.41s.53,4.4-1.2,14.77"/><path class="cls-5" d="M185.06,38.23s-9.78.42-26,7.22c0,0,15-7.84,26-7.22Z"/><path class="cls-7" d="M179.32,37.39s-10.68,1.19-27.37,7.7C152,45.09,166.48,38.58,179.32,37.39Z"/><path class="cls-5" d="M177.16,43.62s10.76-7.49,15.8-5.31-2.67,16.42-6.3,17S175.66,47.8,177.16,43.62Z"/><path class="cls-10" d="M175.78,43s12.64-6.65,18.49-4.82S191,52.52,186.71,53.05,174,46.67,175.78,43Z"/><path class="cls-11" d="M185.75,38.94c3.11-.92,6.31-1.44,8.52-.75a2.58,2.58,0,0,1,1.42,1c-1.31,1.83-2.74,3.18-3.79,3.34C190.22,42.76,187.68,41.11,185.75,38.94Z"/><path class="cls-5" d="M175.78,43s1.51-.79,3.73-1.76c0,3.78,6.16,9.51,9.39,9.06,2.17-.3,5.86-5.1,7.26-9.2-.23,4.3-6.24,11.54-9.45,11.94C182.46,53.58,174,46.67,175.78,43Z"/><path class="cls-9" d="M157.14,79.58c7.52-.24,26.61-7.28,26.61-7.28a11.56,11.56,0,0,0,3.76,2.3h0a11.08,11.08,0,0,0,1.63.46,7.81,7.81,0,0,1-1.92-.23l-2.78,2.35-1.62-.25,3.64-1.81a15.72,15.72,0,0,1-2.52-2.6s-15.67,6.67-26.8,7.06"/><path class="cls-12" d="M190.19,39.66c0,.33.81.57,1.78.53s1.74-.34,1.72-.68-.81-.57-1.77-.53S190.18,39.33,190.19,39.66Z"/><g class="cls-13"><path class="cls-14" d="M119,57.21l0,.09h0A.36.36,0,0,0,119,57.21Z"/><path class="cls-15" d="M119.5,50.53c1.1-.05,2.65-4.09,2.29-1.71a55.72,55.72,0,0,1-2.63,8c.4-1.24-.81-6.55-2.13-12.35C117.22,45.25,118.48,50.59,119.5,50.53Z"/></g><path class="cls-5" d="M138.39,76.17c0-.43-1-2.16-.37-1.49s1.72,2,1.72,2-8,1.22-13.38-.06C130.82,77.39,138.36,76.61,138.39,76.17Z"/><path class="cls-5" d="M158.07,11.2c.77.39,2.69.8,1.65.76s-5.53-.59-5.53-.59a46,46,0,0,1,5.93-1.77C158.47,10,157.31,10.82,158.07,11.2Z"/><path class="cls-5" d="M189.93,56.87c0,.55.26,1,.54,1s.48-.47.45-1-.26-1-.54-1S189.91,56.31,189.93,56.87Z"/><path class="cls-5" d="M192.79,53.48c0,.55.37,1,.79,1a1,1,0,1,0-.79-1Z"/><path class="cls-5" d="M193,58.27c0,.28.19.51.4.5s.36-.25.35-.54-.19-.51-.4-.5S193,58,193,58.27Z"/><path class="cls-5" d="M177.52,58.06a.91.91,0,1,0,.84-1.14A1,1,0,0,0,177.52,58.06Z"/><path class="cls-5" d="M174,54.43a.83.83,0,0,0,1.66-.07.83.83,0,0,0-.87-.79A.82.82,0,0,0,174,54.43Z"/><path class="cls-5" d="M169.35,62a1.08,1.08,0,1,0,1-1.12A1.07,1.07,0,0,0,169.35,62Z"/><path class="cls-5" d="M173.13,60a.39.39,0,0,0,.4.37.39.39,0,1,0,0-.78A.39.39,0,0,0,173.13,60Z"/><path class="cls-5" d="M166.44,54.11a.5.5,0,0,0,.51.47.49.49,0,1,0-.51-.47Z"/><path class="cls-16" d="M143.86,27.52s3.33,1.36,5.42-3.15"/><path class="cls-16" d="M174.44,21s2.32,3.83,4.33,2.49"/><path class="cls-5" d="M156.68,96s-2.29,4.34-8.89,5.07C147.79,101.07,152.38,106.66,156.68,96Z"/><path class="cls-5" d="M75.54,131.6s-2.46,6.84,2.08,8.78l-4.9-1.32Z"/><path class="cls-3" d="M136.52,14.18S123.75.66,119,.1s-7.75,16-4.46,31.84"/><path class="cls-7" d="M116.43,24.6s-.75-18.4,2-20.27,7.79,11.35,8,15.29-4,10.8-6.94,10.61S116.5,27,116.43,24.6Z"/><path class="cls-5" d="M118.4,4.33c.69-.48,1.54,0,2.41,1.09a1.19,1.19,0,0,0-.22.12c-2.36,1.62-1.71,17.56-1.71,17.56.06,2.11.08,4.71,2.61,4.88a3.53,3.53,0,0,0,2.4-1.24c-1.36,2-3.06,3.58-4.45,3.49-2.91-.19-2.94-3.19-3-5.63C116.43,24.6,115.68,6.2,118.4,4.33Z"/><polygon class="cls-5" points="133.66 11.28 137.43 15.31 135.04 11.2 133.66 11.28"/><path class="cls-8" d="M173.13,28.73s2.62,6.1,5.71,6.1,2-6.1,2-6.1"/><path class="cls-8" d="M156.48,30.23s1.29,7.85-3.77,10-8-5.38-8-5.38"/><path class="cls-3" d="M127.94,136.57s-3.21,26.3,2.54,67.73a1.26,1.26,0,0,0,.25.58c.75.94,3.41,4.36,4.28,6.8a1.18,1.18,0,0,1-1.12,1.59l-16.31-.37a1.17,1.17,0,0,1-1.12-.9,459.82,459.82,0,0,1-11.21-84.34"/><path class="cls-5" d="M130.48,204.3s-3.58-.27-9.13,2.29a23.7,23.7,0,0,1,9-3.18Z"/><g class="cls-13"><path class="cls-15" d="M124.81,208.81c.41.41.23,2.88.1,4.25l-.94,0C124.14,211.06,124.44,208.45,124.81,208.81Z"/><path class="cls-15" d="M131.76,213.22c-1-2.15-2.78-6.41-1.85-5.73s2.29,4,3,5.75Z"/></g><path class="cls-3" d="M76.82,131.11s-7.41,29.14-34.73,46.26a93.42,93.42,0,0,0-8.94,26.5A26.11,26.11,0,0,1,38,211.49a1.34,1.34,0,0,1-1.26,1.78H24.59s-1-34.31,5.84-45a69.22,69.22,0,0,1,4.91-6.42s.77-18.13,12.13-41.52"/><path class="cls-5" d="M33.15,203.87a8.7,8.7,0,0,0-5.46,2.39s2.26-2.83,5.53-2.86Z"/><g class="cls-13"><path class="cls-15" d="M35.6,213.27c-.65-1.88-2.15-6.33-1.52-5.72s1.94,4.34,2.41,5.72Z"/><path class="cls-15" d="M30.32,209c.3.43-.2,3.08-.44,4.24h-.67C29.47,211.68,30,208.62,30.32,209Z"/></g><path class="cls-3" d="M65.19,100.37s-28,4.56-45-6.51a.31.31,0,0,0-.39.49c5.44,5.06,18.63,14.89,37.66,13.36"/><path class="cls-5" d="M61.3,100.84a15.65,15.65,0,0,0-8,4,9.42,9.42,0,0,1,4.37-3.72Z"/></g></g></g></g></svg>